<svg width="71" height="71" viewBox="0 0 71 71" fill="none" xmlns="http://www.w3.org/2000/svg">
<path d="M13.0951 60.3522L8.11176 4.4375H62.8883L57.8983 60.3433L35.4667 66.5625L13.0951 60.3522Z" fill="#1572B6"/>
<path d="M35.5 61.8099L53.6272 56.7845L57.8916 9.01035H35.5V61.8099Z" fill="#33A9DC"/>
<path d="M35.5 29.2675H44.5747L45.2004 22.2452H35.5V15.387H52.6953L52.5311 17.2264L50.8471 36.1257H35.5V29.2675Z" fill="white"/>
<path d="M35.5421 47.0774L35.5111 47.0863L27.8741 45.0229L27.386 39.5536H20.5012L21.4619 50.3212L35.5088 54.2218L35.5421 54.2129V47.0774Z" fill="#EBEBEB"/>
<path d="M43.9912 35.835L43.1658 45.0184L35.5178 47.0819V54.2174L49.5758 50.3212L49.68 49.1631L50.8715 35.835H43.9912Z" fill="white"/>
<path d="M35.5244 15.387V22.2452H18.9592L18.8216 20.7031L18.5088 17.2264L18.3446 15.387H35.5244ZM35.5 29.2675V36.1257H27.9584L27.8209 34.5836L27.5103 31.1069L27.3461 29.2675H35.5Z" fill="#EBEBEB"/>
</svg>
