<svg width="30" height="30" viewBox="0 0 30 30" fill="none" xmlns="http://www.w3.org/2000/svg">
<path d="M15 7.5C16.9891 7.5 18.8968 8.29018 20.3033 9.6967C21.7098 11.1032 22.5 13.0109 22.5 15C22.5 17.775 20.9875 20.2 18.75 21.5V23.75C18.75 24.0815 18.6183 24.3995 18.3839 24.6339C18.1495 24.8683 17.8315 25 17.5 25H12.5C12.1685 25 11.8505 24.8683 11.6161 24.6339C11.3817 24.3995 11.25 24.0815 11.25 23.75V21.5C9.0125 20.2 7.5 17.775 7.5 15C7.5 13.0109 8.29018 11.1032 9.6967 9.6967C11.1032 8.29018 13.0109 7.5 15 7.5ZM17.5 26.25V27.5C17.5 27.8315 17.3683 28.1495 17.1339 28.3839C16.8995 28.6183 16.5815 28.75 16.25 28.75H13.75C13.4185 28.75 13.1005 28.6183 12.8661 28.3839C12.6317 28.1495 12.5 27.8315 12.5 27.5V26.25H17.5ZM25 13.75H28.75V16.25H25V13.75ZM1.25 13.75H5V16.25H1.25V13.75ZM16.25 1.25V5H13.75V1.25H16.25ZM6.15 4.375L8.8125 7.05L7.0375 8.8125L4.375 6.1625L6.15 4.375ZM21.1875 7.0375L23.8375 4.375L25.625 6.1625L22.9625 8.8125L21.1875 7.0375Z" fill="black"/>
</svg>
