<svg width="71" height="71" viewBox="0 0 71 71" fill="none" xmlns="http://www.w3.org/2000/svg">
<path d="M13.0951 60.3522L8.10956 4.4375H62.8905L57.8983 60.3433L35.4667 66.5625L13.0951 60.3522Z" fill="#E44F26"/>
<path d="M35.5 61.8099L53.6272 56.7845L57.8916 9.01035H35.5V61.8099Z" fill="#F1662A"/>
<path d="M35.5 29.7468H26.4253L25.7996 22.7244H35.5V15.8663H18.3047L18.4689 17.7078L20.1529 36.6049H35.5V29.7468ZM35.5 47.5567L35.4689 47.5656L27.832 45.5043L27.3439 40.0351H20.4591L21.4198 50.8005L35.4689 54.701L35.5 54.6922V47.5567Z" fill="#EBEBEB"/>
<path d="M35.4756 29.7468V36.6049H43.9201L43.1258 45.4999L35.4756 47.5633V54.6988L49.5358 50.8005L49.6379 49.6423L51.2487 31.5883L51.4173 29.7468H35.4756ZM35.4756 15.8663V22.7244H52.0408L52.1783 21.1846L52.4912 17.7078L52.6554 15.8663H35.4756Z" fill="white"/>
</svg>
