<svg width="98" height="98" viewBox="0 0 98 98" fill="none" xmlns="http://www.w3.org/2000/svg">
<path d="M28.42 0H69.58C85.26 0 98 12.74 98 28.42V69.58C98 77.1175 95.0058 84.3462 89.676 89.676C84.3462 95.0058 77.1175 98 69.58 98H28.42C12.74 98 0 85.26 0 69.58V28.42C0 20.8825 2.99424 13.6538 8.32403 8.32403C13.6538 2.99424 20.8825 0 28.42 0ZM27.44 9.8C22.7616 9.8 18.2748 11.6585 14.9666 14.9666C11.6585 18.2748 9.8 22.7616 9.8 27.44V70.56C9.8 80.311 17.689 88.2 27.44 88.2H70.56C75.2384 88.2 79.7252 86.3415 83.0334 83.0334C86.3415 79.7252 88.2 75.2384 88.2 70.56V27.44C88.2 17.689 80.311 9.8 70.56 9.8H27.44ZM74.725 17.15C76.3495 17.15 77.9074 17.7953 79.056 18.944C80.2047 20.0926 80.85 21.6505 80.85 23.275C80.85 24.8995 80.2047 26.4574 79.056 27.606C77.9074 28.7547 76.3495 29.4 74.725 29.4C73.1006 29.4 71.5426 28.7547 70.394 27.606C69.2453 26.4574 68.6 24.8995 68.6 23.275C68.6 21.6505 69.2453 20.0926 70.394 18.944C71.5426 17.7953 73.1006 17.15 74.725 17.15ZM49 24.5C55.4978 24.5 61.7295 27.0812 66.3241 31.6759C70.9188 36.2705 73.5 42.5022 73.5 49C73.5 55.4978 70.9188 61.7295 66.3241 66.3241C61.7295 70.9188 55.4978 73.5 49 73.5C42.5022 73.5 36.2705 70.9188 31.6759 66.3241C27.0812 61.7295 24.5 55.4978 24.5 49C24.5 42.5022 27.0812 36.2705 31.6759 31.6759C36.2705 27.0812 42.5022 24.5 49 24.5ZM49 34.3C45.1013 34.3 41.3623 35.8487 38.6055 38.6055C35.8487 41.3623 34.3 45.1013 34.3 49C34.3 52.8987 35.8487 56.6377 38.6055 59.3945C41.3623 62.1513 45.1013 63.7 49 63.7C52.8987 63.7 56.6377 62.1513 59.3945 59.3945C62.1513 56.6377 63.7 52.8987 63.7 49C63.7 45.1013 62.1513 41.3623 59.3945 38.6055C56.6377 35.8487 52.8987 34.3 49 34.3Z" fill="white"/>
</svg>
