<svg width="71" height="71" viewBox="0 0 71 71" fill="none" xmlns="http://www.w3.org/2000/svg">
<path d="M4.4375 4.4375H66.5625V66.5625H4.4375V4.4375Z" fill="#F5DE19"/>
<path d="M46.17 52.9726C46.6993 54.0478 47.5217 54.9516 48.5423 55.5797C49.563 56.2078 50.7404 56.5346 51.9387 56.5226C54.3572 56.5226 55.9036 55.3134 55.9036 53.6383C55.9036 51.6414 54.315 50.927 51.6525 49.7621L50.1926 49.1364C45.9769 47.3415 43.1813 45.0939 43.1813 40.3413C43.1813 35.9637 46.5094 32.6289 51.7302 32.6289C53.4202 32.5069 55.1087 32.8851 56.5852 33.7165C58.0617 34.5478 59.2607 35.7955 60.0327 37.3038L55.4688 40.2215C55.1715 39.4736 54.6539 38.8337 53.9846 38.3868C53.3153 37.9398 52.526 37.7068 51.7213 37.7187C51.3702 37.6836 51.0156 37.722 50.6802 37.8314C50.3447 37.9409 50.0358 38.119 49.773 38.3544C49.5102 38.5899 49.2993 38.8775 49.1538 39.199C49.0083 39.5204 48.9314 39.8687 48.9279 40.2215C48.9279 41.9721 50.0128 42.6821 52.5178 43.7715L53.9777 44.3972C58.9389 46.525 61.7434 48.6927 61.7434 53.5673C61.7434 58.8235 57.6143 61.7034 52.0696 61.7034C49.9092 61.8411 47.7552 61.3506 45.8674 60.2911C43.9796 59.2317 42.4387 57.6485 41.4307 55.7328L46.17 52.9726ZM25.5467 53.4785C26.463 55.1049 27.2973 56.4805 29.303 56.4805C31.22 56.4805 32.4315 55.7305 32.4315 52.8129V32.9617H38.269V52.8905C38.269 58.9344 34.719 61.6857 29.5515 61.6857C27.725 61.7855 25.9109 61.3303 24.3479 60.3799C22.7848 59.4295 21.546 58.0283 20.7941 56.3607L25.5467 53.4785Z" fill="black"/>
</svg>
