<svg xmlns="http://www.w3.org/2000/svg"
  xmlns:xlink="http://www.w3.org/1999/xlink" width="500" zoomAndPan="magnify" viewBox="0 0 375 374.999991" height="500" preserveAspectRatio="xMidYMid meet" version="1.0">
  <defs>
    <g/>
  </defs>
  <g fill="#ff00ff" fill-opacity="1">
    <g transform="translate(73.911543, 293.368793)">
      <g>
        <path d="M 185.5625 0 L 175.8125 -122.28125 L 174.546875 -122.28125 L 132.296875 -1.25 L 104.28125 -1.25 L 62.015625 -122.28125 L 60.765625 -122.28125 L 51.015625 0 L 4 0 L 22.5 -206.3125 L 72.515625 -206.3125 L 118.28125 -87.28125 L 164.046875 -206.3125 L 214.0625 -206.3125 L 232.578125 0 Z M 185.5625 0 "/>
      </g>
    </g>
  </g>
  <g fill="#00ffff" fill-opacity="1">
    <g transform="translate(64.533812, 293.368793)">
      <g>
        <path d="M 185.5625 0 L 175.8125 -122.28125 L 174.546875 -122.28125 L 132.296875 -1.25 L 104.28125 -1.25 L 62.015625 -122.28125 L 60.765625 -122.28125 L 51.015625 0 L 4 0 L 22.5 -206.3125 L 72.515625 -206.3125 L 118.28125 -87.28125 L 164.046875 -206.3125 L 214.0625 -206.3125 L 232.578125 0 Z M 185.5625 0 "/>
      </g>
    </g>
  </g>
  <g fill="#8c52ff" fill-opacity="1">
    <g transform="translate(69.222677, 293.368793)">
      <g>
        <path d="M 185.5625 0 L 175.8125 -122.28125 L 174.546875 -122.28125 L 132.296875 -1.25 L 104.28125 -1.25 L 62.015625 -122.28125 L 60.765625 -122.28125 L 51.015625 0 L 4 0 L 22.5 -206.3125 L 72.515625 -206.3125 L 118.28125 -87.28125 L 164.046875 -206.3125 L 214.0625 -206.3125 L 232.578125 0 Z M 185.5625 0 "/>
      </g>
    </g>
  </g>
</svg>