<svg xmlns="http://www.w3.org/2000/svg" xmlns:xlink="http://www.w3.org/1999/xlink" width="500" zoomAndPan="magnify" viewBox="0 0 375 374.999991" height="500" preserveAspectRatio="xMidYMid meet" version="1.0"><defs><g/></defs><g fill="#ff00ff" fill-opacity="1"><g transform="translate(73.911543, 262.495104)"><g><path d="M 185.5625 0 L 175.8125 -122.28125 L 174.546875 -122.28125 L 132.296875 -1.25 L 104.28125 -1.25 L 62.015625 -122.28125 L 60.765625 -122.28125 L 51.015625 0 L 4 0 L 22.5 -206.3125 L 72.515625 -206.3125 L 118.28125 -87.28125 L 164.046875 -206.3125 L 214.0625 -206.3125 L 232.578125 0 Z M 185.5625 0 "/></g></g></g><g fill="#00ffff" fill-opacity="1"><g transform="translate(64.533812, 262.495104)"><g><path d="M 185.5625 0 L 175.8125 -122.28125 L 174.546875 -122.28125 L 132.296875 -1.25 L 104.28125 -1.25 L 62.015625 -122.28125 L 60.765625 -122.28125 L 51.015625 0 L 4 0 L 22.5 -206.3125 L 72.515625 -206.3125 L 118.28125 -87.28125 L 164.046875 -206.3125 L 214.0625 -206.3125 L 232.578125 0 Z M 185.5625 0 "/></g></g></g><g fill="#8c52ff" fill-opacity="1"><g transform="translate(69.222677, 262.495104)"><g><path d="M 185.5625 0 L 175.8125 -122.28125 L 174.546875 -122.28125 L 132.296875 -1.25 L 104.28125 -1.25 L 62.015625 -122.28125 L 60.765625 -122.28125 L 51.015625 0 L 4 0 L 22.5 -206.3125 L 72.515625 -206.3125 L 118.28125 -87.28125 L 164.046875 -206.3125 L 214.0625 -206.3125 L 232.578125 0 Z M 185.5625 0 "/></g></g></g><g fill="#ffffff" fill-opacity="1"><g transform="translate(90.04038, 343.706489)"><g><path d="M 20.324219 -1.699219 C 22.238281 -2.449219 24.382812 -4.027344 27.394531 -6.679688 L 29.574219 -8.636719 C 30.46875 -9.171875 32.585938 -11.289062 33.101562 -11.859375 L 35.03125 -14.453125 C 37.117188 -17.113281 38.859375 -20.1875 40.925781 -24.3125 L 42.378906 -26.722656 L 43.121094 -28.117188 C 43.089844 -28.660156 45 -32.71875 45.160156 -32.78125 C 45.636719 -32.96875 50.625 -44.679688 51.664062 -47.667969 L 54.773438 -54.773438 L 58.535156 -63.980469 C 58.921875 -64.867188 59.46875 -65.820312 60.367188 -66.355469 C 62.289062 -68.027344 65.425781 -70.363281 65.964844 -70.390625 C 66.285156 -70.515625 66.542969 -70.800781 66.863281 -70.925781 C 68.402344 -72.632812 77.957031 -77.847656 78.269531 -77.050781 C 78.332031 -76.890625 78.714844 -76.855469 79.035156 -76.980469 C 79.734375 -77.070312 79.832031 -77.292969 79.902344 -78.054688 C 80.136719 -79.804688 79.027344 -80.292969 77.238281 -79.222656 L 74.710938 -77.679688 C 69.277344 -74.632812 61.855469 -70.070312 61.566406 -69.402344 C 61.628906 -69.242188 61.371094 -68.957031 60.988281 -68.992188 C 60.511719 -68.804688 60.546875 -69.1875 61.613281 -71.628906 L 64.632812 -79.441406 C 65.699219 -81.882812 65.992188 -82.550781 66.484375 -84.585938 L 67.164062 -86.140625 C 67.324219 -86.203125 67.417969 -86.425781 67.355469 -86.582031 C 67.292969 -86.742188 67.523438 -87.570312 67.816406 -88.234375 C 68.917969 -91.0625 69.765625 -93.601562 70.382812 -95.316406 L 71.851562 -100.496094 C 73.410156 -104.972656 76.707031 -115.835938 77.363281 -118.855469 C 78.21875 -122.320312 80.402344 -129.4375 80.851562 -130.164062 C 80.949219 -130.386719 81.277344 -131.4375 81.441406 -132.421875 C 81.769531 -133.46875 82.03125 -134.679688 82.386719 -135.183594 C 82.710938 -136.234375 83.363281 -138.328125 83.664062 -139.917969 C 83.765625 -141.0625 85.6875 -146.972656 86.753906 -149.414062 L 88.703125 -154.78125 L 89.683594 -157.925781 C 89.972656 -158.59375 90.042969 -159.355469 89.917969 -159.675781 C 89.730469 -160.15625 89.988281 -160.4375 90.402344 -160.785156 C 91.078125 -161.417969 94.625 -163.175781 97.175781 -164.175781 C 101.328125 -165.800781 102.125 -166.113281 103.492188 -165.914062 C 105.082031 -165.613281 105.464844 -165.582031 105.695312 -166.40625 C 105.984375 -167.074219 105.984375 -167.074219 105.289062 -167.90625 C 104.3125 -168.996094 103.292969 -168.78125 98.601562 -167.125 C 96.363281 -166.25 94.289062 -165.4375 94.03125 -165.152344 C 93.554688 -164.964844 92.660156 -164.429688 92.082031 -164.023438 L 89.589844 -162.863281 L 87.160156 -161.542969 C 85.148438 -160.570312 82.621094 -159.027344 81.628906 -158.269531 L 80.0625 -157.105469 C 79.007812 -156.507812 78.910156 -156.285156 77.917969 -155.527344 C 77.402344 -154.960938 76.667969 -154.488281 76.25 -154.140625 C 75.039062 -153.480469 75.28125 -151.917969 76.558594 -152.417969 C 76.941406 -152.382812 77.933594 -153.140625 78.828125 -153.675781 C 80.492188 -155.0625 84.429688 -157.710938 85.324219 -158.246094 L 86.699219 -158.96875 C 87.53125 -159.660156 87.53125 -159.660156 87.65625 -159.34375 C 87.71875 -159.183594 87.199219 -157.691406 86.324219 -155.691406 L 84.632812 -150.609375 L 83.722656 -148.226562 L 83.070312 -146.132812 L 81.898438 -142.542969 L 81.273438 -139.90625 C 80.457031 -136.820312 80.324219 -136.21875 79.941406 -136.253906 C 79.941406 -136.253906 79.84375 -136.03125 79.90625 -135.871094 C 80.03125 -135.550781 79.3125 -132.691406 78.5 -130.53125 C 77.785156 -128.597656 77.75 -128.214844 77.8125 -128.054688 C 77.875 -127.894531 77.777344 -127.671875 77.621094 -127.609375 C 77.460938 -127.546875 76.773438 -125.070312 75.304688 -119.890625 L 73.992188 -114.773438 L 73.859375 -114.171875 L 73.4375 -112.898438 L 72.75 -110.421875 C 72.460938 -109.753906 72.230469 -108.929688 72.292969 -108.769531 C 72.355469 -108.609375 72.222656 -108.007812 72.03125 -107.5625 L 71.21875 -105.402344 L 68.804688 -97.460938 L 68.542969 -96.253906 C 68.445312 -96.03125 68.25 -95.585938 68.1875 -95.746094 C 67.964844 -95.84375 68.027344 -95.683594 68.089844 -95.523438 C 68.277344 -95.046875 65.414062 -86.375 63.566406 -82.15625 L 61.980469 -78.21875 C 61 -75.074219 58.574219 -69.519531 57.503906 -67.074219 C 56.921875 -65.742188 56.410156 -65.171875 54.839844 -64.007812 C 52.441406 -62.144531 49.269531 -59.429688 48.339844 -58.515625 C 46.476562 -56.683594 45.484375 -55.925781 45.421875 -56.085938 C 45.421875 -56.085938 45.265625 -56.023438 45.070312 -55.578125 C 44.972656 -55.355469 43.527344 -53.871094 41.988281 -52.160156 C 38.941406 -49.128906 33.871094 -43.273438 31.523438 -40.332031 L 24.578125 -30.796875 C 23.480469 -28.894531 20.769531 -23.597656 20.25 -22.105469 C 19.507812 -20.710938 17.933594 -14.386719 18.058594 -14.066406 C 18.121094 -13.910156 18.023438 -13.6875 17.988281 -13.304688 C 17.890625 -13.082031 17.726562 -12.097656 17.65625 -11.332031 C 17.746094 -10.632812 17.511719 -8.882812 17.308594 -7.515625 C 17.011719 -5.925781 16.90625 -4.78125 17.1875 -3.601562 C 17.527344 -2.261719 17.589844 -2.101562 18.316406 -1.648438 C 19.046875 -1.199219 19.269531 -1.101562 20.324219 -1.699219 Z M 21.359375 -3.761719 C 19.40625 -2.628906 19.027344 -2.664062 18.652344 -3.621094 C 18.242188 -4.199219 18.246094 -5.121094 18.621094 -8.398438 C 18.828125 -10.6875 19.003906 -12.597656 19.097656 -12.820312 C 19.035156 -12.976562 18.972656 -13.136719 19.132812 -13.199219 L 19.398438 -14.410156 C 19.570312 -16.316406 19.992188 -17.585938 20.742188 -19.90625 C 21.554688 -22.066406 24.238281 -27.902344 24.71875 -28.089844 L 24.910156 -28.535156 C 24.945312 -28.917969 25.847656 -30.375 26.910156 -31.894531 L 29.484375 -35.664062 C 29.777344 -36.332031 30.386719 -37.125 30.804688 -37.472656 C 31.734375 -38.386719 33.308594 -40.476562 33.757812 -41.207031 C 33.953125 -41.652344 34.210938 -41.933594 34.210938 -41.933594 C 34.371094 -41.996094 34.722656 -42.503906 34.917969 -42.949219 C 35.335938 -43.296875 35.785156 -44.023438 36.203125 -44.371094 C 36.617188 -44.71875 36.875 -45.003906 36.8125 -45.164062 C 36.8125 -45.164062 37.164062 -45.671875 37.582031 -46.015625 C 38 -46.363281 38.832031 -47.058594 39.183594 -47.566406 L 40.761719 -49.65625 L 42.300781 -51.363281 C 42.558594 -51.648438 42.972656 -51.996094 43.292969 -52.121094 C 43.453125 -52.183594 43.964844 -52.753906 44.480469 -53.320312 C 44.992188 -53.890625 45.570312 -54.300781 45.890625 -54.425781 C 46.046875 -54.488281 46.144531 -54.710938 46.082031 -54.871094 C 46.179688 -55.09375 46.695312 -55.660156 47.527344 -56.355469 C 49.929688 -58.214844 50.761719 -58.910156 51.53125 -59.765625 C 52.363281 -60.460938 55.179688 -62.667969 55.660156 -62.855469 C 55.820312 -62.917969 55.882812 -62.757812 55.785156 -62.535156 C 55.523438 -61.328125 53.316406 -55.675781 51.859375 -52.34375 C 50.824219 -50.28125 49.820312 -47.679688 49.332031 -46.570312 C 48.003906 -42.917969 39.59375 -24.894531 37.304688 -20.867188 C 34.980469 -16.460938 33.917969 -14.941406 31.960938 -12.882812 C 29.746094 -10.546875 26.0625 -7.261719 25.9375 -7.578125 L 25.839844 -7.359375 C 25.804688 -6.976562 22.988281 -4.769531 21.359375 -3.761719 Z M 21.359375 -3.761719 "/></g></g></g><g fill="#ffffff" fill-opacity="1"><g transform="translate(198.580944, 301.200867)"><g><path d="M -13.554688 -44.957031 C -12.855469 -45.046875 -12.214844 -45.296875 -11.640625 -45.707031 L -11.160156 -45.894531 C -11.160156 -45.894531 -8.535156 -47.65625 -6.066406 -50.28125 L 1.40625 -57.996094 C 1.664062 -58.28125 1.476562 -58.757812 1.09375 -58.792969 L 0.871094 -58.890625 L 0.394531 -58.703125 L 0.136719 -58.417969 C -5.699219 -52.636719 -9.738281 -48.84375 -11.625 -47.550781 C -11.625 -47.550781 -13.449219 -46.101562 -13.859375 -46.675781 C -15.0625 -47.863281 -14.632812 -50.058594 -14.207031 -51.328125 C -13.882812 -52.375 -13.035156 -54.917969 -14.953125 -54.167969 C -15.273438 -54.042969 -15.8125 -54.015625 -15.875 -54.171875 C -16.285156 -54.75 -16.703125 -54.402344 -18.851562 -51.902344 C -20.746094 -49.6875 -23.03125 -46.585938 -24.320312 -44.238281 C -24.867188 -43.285156 -25.0625 -42.84375 -24.875 -42.363281 C -24.5625 -41.566406 -24.019531 -41.59375 -23.0625 -41.96875 C -22.265625 -42.28125 -19.699219 -45.128906 -18.796875 -46.585938 C -17.957031 -48.203125 -16.320312 -50.132812 -16.257812 -49.972656 L -16.296875 -48.667969 C -16.429688 -48.066406 -16.339844 -47.363281 -16.152344 -46.886719 C -16.0625 -46.183594 -15.875 -45.703125 -15.144531 -45.253906 C -14.636719 -44.898438 -14.191406 -44.707031 -13.554688 -44.957031 Z M -23.308594 -43.53125 L -22.597656 -44.542969 C -22.015625 -45.875 -20.148438 -48.632812 -18.449219 -50.402344 C -17.226562 -51.988281 -16.910156 -52.113281 -16.785156 -51.792969 C -16.722656 -51.632812 -17.074219 -51.125 -17.492188 -50.777344 C -18.519531 -49.640625 -18.96875 -48.910156 -19.164062 -48.464844 C -19.359375 -48.023438 -21.445312 -45.363281 -22.472656 -44.222656 Z M -23.308594 -43.53125 "/></g></g></g><g fill="#ffffff" fill-opacity="1"><g transform="translate(219.01211, 293.199809)"><g><path d="M -21.125 -41.253906 C -20.996094 -41.859375 -20.289062 -42.871094 -19.835938 -43.601562 L -18.582031 -45.566406 C -18.191406 -46.453125 -17.421875 -47.308594 -14.695312 -50.21875 L -13.3125 -51.863281 C -12.640625 -52.496094 -12.480469 -52.558594 -11.65625 -52.328125 C -10.507812 -52.222656 -9.292969 -52.882812 -7.371094 -54.558594 L -5.316406 -56.835938 L -3.875 -58.320312 C -3.617188 -58.605469 -2.882812 -59.078125 -2.5625 -59.203125 C -2.085938 -59.390625 -1.828125 -59.675781 -1.472656 -60.179688 C -0.890625 -61.515625 -0.917969 -62.054688 -1.425781 -62.410156 C -1.996094 -62.921875 -2.472656 -62.734375 -3.375 -61.277344 C -3.890625 -60.707031 -4.242188 -60.203125 -4.402344 -60.140625 C -4.5625 -60.078125 -4.980469 -59.730469 -5.332031 -59.222656 C -6.394531 -57.703125 -9.023438 -55.015625 -9.980469 -54.640625 C -10.300781 -54.515625 -10.523438 -54.613281 -10.871094 -55.027344 C -11.40625 -55.921875 -11.945312 -55.894531 -12.71875 -55.042969 C -12.910156 -54.597656 -15.703125 -51.847656 -16.3125 -51.054688 L -17.5 -49.855469 C -17.851562 -49.347656 -17.625 -50.175781 -16.785156 -51.792969 C -15.75 -53.855469 -15.804688 -54.9375 -16.890625 -54.882812 C -17.429688 -54.851562 -17.75 -54.726562 -18.199219 -54 C -19.324219 -52.636719 -21.558594 -47.527344 -22.210938 -45.433594 L -22.960938 -43.113281 C -23.1875 -42.289062 -23.417969 -41.460938 -23.453125 -41.078125 C -23.113281 -39.742188 -21.550781 -39.984375 -21.125 -41.253906 Z M -21.125 -41.253906 "/></g></g></g><g fill="#ffffff" fill-opacity="1"><g transform="translate(243.912586, 283.448522)"><g><path d="M -13.554688 -44.957031 C -12.855469 -45.046875 -12.214844 -45.296875 -11.640625 -45.707031 L -11.160156 -45.894531 C -11.160156 -45.894531 -8.535156 -47.65625 -6.066406 -50.28125 L 1.40625 -57.996094 C 1.664062 -58.28125 1.476562 -58.757812 1.09375 -58.792969 L 0.871094 -58.890625 L 0.394531 -58.703125 L 0.136719 -58.417969 C -5.699219 -52.636719 -9.738281 -48.84375 -11.625 -47.550781 C -11.625 -47.550781 -13.449219 -46.101562 -13.859375 -46.675781 C -15.0625 -47.863281 -14.632812 -50.058594 -14.207031 -51.328125 C -13.882812 -52.375 -13.035156 -54.917969 -14.953125 -54.167969 C -15.273438 -54.042969 -15.8125 -54.015625 -15.875 -54.171875 C -16.285156 -54.75 -16.703125 -54.402344 -18.851562 -51.902344 C -20.746094 -49.6875 -23.03125 -46.585938 -24.320312 -44.238281 C -24.867188 -43.285156 -25.0625 -42.84375 -24.875 -42.363281 C -24.5625 -41.566406 -24.019531 -41.59375 -23.0625 -41.96875 C -22.265625 -42.28125 -19.699219 -45.128906 -18.796875 -46.585938 C -17.957031 -48.203125 -16.320312 -50.132812 -16.257812 -49.972656 L -16.296875 -48.667969 C -16.429688 -48.066406 -16.339844 -47.363281 -16.152344 -46.886719 C -16.0625 -46.183594 -15.875 -45.703125 -15.144531 -45.253906 C -14.636719 -44.898438 -14.191406 -44.707031 -13.554688 -44.957031 Z M -23.308594 -43.53125 L -22.597656 -44.542969 C -22.015625 -45.875 -20.148438 -48.632812 -18.449219 -50.402344 C -17.226562 -51.988281 -16.910156 -52.113281 -16.785156 -51.792969 C -16.722656 -51.632812 -17.074219 -51.125 -17.492188 -50.777344 C -18.519531 -49.640625 -18.96875 -48.910156 -19.164062 -48.464844 C -19.359375 -48.023438 -21.445312 -45.363281 -22.472656 -44.222656 Z M -23.308594 -43.53125 "/></g></g></g><g fill="#ffffff" fill-opacity="1"><g transform="translate(264.343752, 275.447463)"><g><path d="M -46.171875 27.839844 C -45.757812 27.492188 -43.140625 22.417969 -42.199219 19.65625 L -37.578125 6.0625 L -36.699219 3.140625 L -34.546875 -3.59375 L -33.183594 -7.625 C -32.820312 -9.058594 -29.601562 -18.234375 -29.410156 -18.679688 L -28.570312 -20.296875 L -26.246094 -24.703125 C -25.953125 -25.371094 -25.601562 -25.878906 -25.441406 -25.941406 L -24.34375 -27.84375 C -24.019531 -28.890625 -23.566406 -29.621094 -23.503906 -29.460938 C -23.441406 -29.300781 -23.34375 -29.523438 -23.308594 -29.902344 C -23.117188 -30.347656 -22.921875 -30.792969 -22.761719 -30.855469 C -22.601562 -30.917969 -22.441406 -30.980469 -22.503906 -31.140625 C -22.566406 -31.300781 -22.46875 -31.523438 -22.3125 -31.585938 C -22.152344 -31.648438 -21.894531 -31.929688 -21.957031 -32.089844 C -21.859375 -32.3125 -21.570312 -32.980469 -21.214844 -33.488281 L -20.3125 -34.945312 C -20.019531 -35.609375 -18.183594 -38.910156 -17.121094 -40.429688 L -15.21875 -43.566406 C -14.351562 -44.644531 -13.804688 -45.59375 -13.582031 -45.496094 C -13.421875 -45.558594 -13.421875 -45.558594 -13.484375 -45.71875 C -13.546875 -45.878906 -13.355469 -46.324219 -13.195312 -46.386719 L -12.484375 -47.398438 L -10.59375 -49.613281 C -9.722656 -50.691406 -8.699219 -51.828125 -8.503906 -52.273438 C -8.246094 -52.558594 -7.890625 -53.066406 -7.574219 -53.191406 L -6.484375 -54.167969 C -5.394531 -55.148438 -5.296875 -55.371094 -4.402344 -55.90625 C -3.1875 -56.566406 -3.285156 -56.34375 -4.0625 -54.566406 L -4.679688 -52.851562 C -4.871094 -52.40625 -6.058594 -51.203125 -7.246094 -50.003906 C -8.433594 -48.800781 -9.621094 -47.601562 -9.558594 -47.441406 L -10.132812 -47.03125 C -10.292969 -46.96875 -11.417969 -45.609375 -12.796875 -43.964844 C -15.558594 -40.671875 -15.886719 -39.625 -15.136719 -37.707031 L -14.601562 -36.8125 L -13.484375 -37.25 C -12.523438 -37.625 -12.011719 -38.195312 -10.019531 -40.632812 C -7.773438 -43.355469 -5.746094 -46.171875 -5.675781 -46.9375 C -5.578125 -47.160156 -4.96875 -47.949219 -4.457031 -48.519531 C -4.359375 -48.742188 -4.066406 -49.40625 -3.933594 -50.011719 C -3.609375 -51.058594 -2.714844 -51.59375 -0.835938 -56.195312 C -0.898438 -56.355469 -0.960938 -56.515625 -0.925781 -56.898438 C -0.667969 -57.183594 -0.792969 -57.503906 -0.855469 -57.660156 L -1.105469 -58.300781 C -1.578125 -59.035156 -2.660156 -58.980469 -3.972656 -58.097656 C -5.441406 -57.152344 -8.773438 -54.375 -8.808594 -53.996094 C -8.746094 -53.835938 -9.003906 -53.550781 -9.324219 -53.425781 C -9.480469 -53.363281 -9.898438 -53.015625 -9.996094 -52.792969 L -11.570312 -50.703125 C -13.917969 -47.761719 -17.261719 -43.136719 -17.585938 -42.089844 L -18.136719 -41.136719 L -19.035156 -39.679688 C -20.425781 -37.109375 -22.226562 -34.195312 -22.324219 -33.972656 C -22.484375 -33.910156 -22.644531 -33.847656 -22.582031 -33.6875 C -22.457031 -33.367188 -23.90625 -30.960938 -25.03125 -29.597656 C -25.484375 -28.871094 -25.996094 -28.300781 -26.058594 -28.460938 L -25.539062 -29.953125 L -24.886719 -32.046875 C -24.851562 -32.429688 -21.730469 -41.386719 -20.335938 -44.878906 L -18.84375 -48.589844 L -17.964844 -51.515625 C -17.574219 -52.402344 -17.347656 -53.230469 -17.1875 -53.292969 C -17.027344 -53.355469 -16.929688 -53.574219 -16.894531 -53.957031 C -16.957031 -54.117188 -16.730469 -54.945312 -16.339844 -55.832031 L -15.398438 -58.59375 C -15.167969 -59.421875 -14.683594 -60.53125 -14.390625 -61.199219 C -13.84375 -62.148438 -13.933594 -62.851562 -14.539062 -62.980469 C -15.042969 -63.335938 -15.042969 -63.335938 -15.789062 -61.941406 C -16.140625 -61.433594 -17.113281 -59.210938 -17.925781 -57.054688 L -29.425781 -25.300781 C -29.554688 -24.695312 -29.847656 -24.03125 -30.070312 -24.128906 C -30.230469 -24.066406 -30.230469 -24.066406 -30.167969 -23.90625 C -29.980469 -23.425781 -31.125 -19.296875 -32.484375 -16.1875 C -33.101562 -14.472656 -33.941406 -12.851562 -34.808594 -11.777344 C -35.160156 -11.269531 -35.550781 -10.382812 -35.742188 -9.9375 C -36.097656 -9.429688 -36.292969 -8.988281 -36.453125 -8.925781 C -36.609375 -8.863281 -36.707031 -8.640625 -36.644531 -8.480469 L -38.226562 -5.464844 C -39.128906 -4.007812 -39.90625 -2.230469 -40.101562 -1.789062 L -41.328125 0.71875 C -42.230469 2.175781 -44.660156 7.730469 -45.894531 11.160156 C -47.15625 14.046875 -48.277344 19.644531 -47.972656 21.363281 L -48.019531 23.59375 L -47.847656 25.917969 C -47.570312 27.097656 -46.652344 28.027344 -46.171875 27.839844 Z M -13.339844 -39.703125 C -13.691406 -39.195312 -13.691406 -39.195312 -13.242188 -39.921875 C -12.984375 -40.207031 -12.789062 -40.652344 -12.789062 -40.652344 C -12.851562 -40.8125 -12.65625 -41.257812 -12.304688 -41.761719 L -11.144531 -43.503906 C -10.792969 -44.011719 -10.4375 -44.519531 -10.117188 -44.644531 C -9.800781 -44.769531 -9.542969 -45.054688 -9.445312 -45.277344 C -9.507812 -45.4375 -9.089844 -45.78125 -8.933594 -45.84375 C -8.613281 -45.96875 -8.355469 -46.253906 -8.417969 -46.414062 C -8.480469 -46.574219 -8.382812 -46.796875 -8.066406 -46.921875 C -7.808594 -47.207031 -7.550781 -47.492188 -7.613281 -47.652344 C -7.675781 -47.808594 -7.675781 -47.808594 -7.515625 -47.871094 C -7.292969 -47.777344 -7.328125 -47.394531 -7.585938 -47.109375 C -8.203125 -45.394531 -11.609375 -40.929688 -13.339844 -39.703125 Z M -46.210938 23.988281 C -46.398438 23.507812 -46.410156 21.121094 -46.300781 19.050781 C -46.28125 16.28125 -45.460938 13.199219 -43.679688 8.820312 L -40.183594 0.824219 L -39.050781 -1.460938 L -36.179688 -6.820312 C -35.179688 -8.5 -35.085938 -8.722656 -35.023438 -8.5625 C -34.960938 -8.402344 -35.832031 -6.40625 -35.992188 -6.34375 C -36.152344 -6.28125 -36.089844 -6.121094 -36.027344 -5.960938 C -35.902344 -5.640625 -36.324219 -4.371094 -37.269531 -1.609375 L -39.613281 5.570312 L -40.265625 7.667969 L -41.144531 10.589844 L -42.742188 15.449219 C -44.433594 20.53125 -46.085938 24.308594 -46.210938 23.988281 Z M -46.210938 23.988281 "/></g></g></g><g fill="#ffffff" fill-opacity="1"><g transform="translate(294.352019, 263.695911)"><g><path d="M -13.554688 -44.957031 C -12.855469 -45.046875 -12.214844 -45.296875 -11.640625 -45.707031 L -11.160156 -45.894531 C -11.160156 -45.894531 -8.535156 -47.65625 -6.066406 -50.28125 L 1.40625 -57.996094 C 1.664062 -58.28125 1.476562 -58.757812 1.09375 -58.792969 L 0.871094 -58.890625 L 0.394531 -58.703125 L 0.136719 -58.417969 C -5.699219 -52.636719 -9.738281 -48.84375 -11.625 -47.550781 C -11.625 -47.550781 -13.449219 -46.101562 -13.859375 -46.675781 C -15.0625 -47.863281 -14.632812 -50.058594 -14.207031 -51.328125 C -13.882812 -52.375 -13.035156 -54.917969 -14.953125 -54.167969 C -15.273438 -54.042969 -15.8125 -54.015625 -15.875 -54.171875 C -16.285156 -54.75 -16.703125 -54.402344 -18.851562 -51.902344 C -20.746094 -49.6875 -23.03125 -46.585938 -24.320312 -44.238281 C -24.867188 -43.285156 -25.0625 -42.84375 -24.875 -42.363281 C -24.5625 -41.566406 -24.019531 -41.59375 -23.0625 -41.96875 C -22.265625 -42.28125 -19.699219 -45.128906 -18.796875 -46.585938 C -17.957031 -48.203125 -16.320312 -50.132812 -16.257812 -49.972656 L -16.296875 -48.667969 C -16.429688 -48.066406 -16.339844 -47.363281 -16.152344 -46.886719 C -16.0625 -46.183594 -15.875 -45.703125 -15.144531 -45.253906 C -14.636719 -44.898438 -14.191406 -44.707031 -13.554688 -44.957031 Z M -23.308594 -43.53125 L -22.597656 -44.542969 C -22.015625 -45.875 -20.148438 -48.632812 -18.449219 -50.402344 C -17.226562 -51.988281 -16.910156 -52.113281 -16.785156 -51.792969 C -16.722656 -51.632812 -17.074219 -51.125 -17.492188 -50.777344 C -18.519531 -49.640625 -18.96875 -48.910156 -19.164062 -48.464844 C -19.359375 -48.023438 -21.445312 -45.363281 -22.472656 -44.222656 Z M -23.308594 -43.53125 "/></g></g></g></svg>