<svg width="67" height="60" viewBox="0 0 67 60" fill="none" xmlns="http://www.w3.org/2000/svg">
<g clip-path="url(#clip0_9_38)">
<path d="M55.0855 19.4274C54.3726 19.1814 53.6535 18.9535 52.9291 18.744C53.0508 18.244 53.1628 17.75 53.2623 17.2648C54.8948 9.29607 53.8276 2.87633 50.1824 0.762647C46.6874 -1.26367 40.9717 0.849226 35.1992 5.90107C34.6303 6.39984 34.074 6.91299 33.5309 7.44001C33.1673 7.08956 32.7972 6.7459 32.421 6.40923C26.3711 1.00765 20.307 -1.26893 16.6658 0.850805C13.174 2.88344 12.14 8.91844 13.6097 16.4705C13.7559 17.2185 13.921 17.9626 14.1048 18.7021C13.2465 18.9474 12.4182 19.2084 11.6255 19.4863C4.53246 21.9732 0.00274658 25.8703 0.00274658 29.9126C0.00274658 34.0876 4.8656 38.2753 12.2533 40.8145C12.8522 41.0195 13.4562 41.2095 14.0645 41.3842C13.8669 42.1807 13.6915 42.9826 13.5385 43.789C12.1374 51.21 13.2315 57.1024 16.7139 59.1221C20.3107 61.2079 26.3475 59.0642 32.2255 53.8971C32.7021 53.477 33.1683 53.0451 33.6235 52.6016C34.2117 53.1723 34.8156 53.7263 35.4344 54.2632C41.1284 59.19 46.7518 61.1795 50.2308 59.1542C53.8242 57.0624 54.9921 50.7324 53.4758 43.0311C53.3564 42.4277 53.2224 41.8274 53.0741 41.2305C53.4981 41.1042 53.9142 40.9742 54.3198 40.839C62.0001 38.2803 66.9972 34.1434 66.9972 29.9126C66.9972 25.8555 62.3212 21.9321 55.0855 19.4274ZM53.4198 38.1074C53.0535 38.2292 52.6777 38.3469 52.2945 38.4613C51.4466 35.7621 50.3025 32.8921 48.9022 29.9266C50.2384 27.0319 51.3386 24.1984 52.1626 21.5169C52.848 21.7163 53.513 21.9266 54.1542 22.1484C60.3538 24.2948 64.1353 27.4676 64.1353 29.9126C64.1353 32.5169 60.0512 35.8976 53.4198 38.1074ZM50.6684 43.59C51.3388 46.9953 51.4343 50.0742 50.9902 52.4813C50.5914 54.6442 49.789 56.0861 48.7967 56.6637C46.6856 57.8926 42.1705 56.2953 37.3011 52.0816C36.7255 51.5825 36.1637 51.0674 35.6166 50.5369C37.5045 48.4608 39.391 46.0474 41.2323 43.3669C44.4711 43.0779 47.5309 42.6053 50.3056 41.9603C50.4393 42.5006 50.5602 43.044 50.6684 43.59ZM22.8426 56.4513C20.7799 57.1837 19.137 57.2048 18.1439 56.629C16.0306 55.4034 15.1521 50.6721 16.3504 44.3258C16.4929 43.5759 16.656 42.8301 16.8396 42.0892C19.5837 42.6997 22.6212 43.1387 25.8676 43.4034C27.7214 46.0263 29.6624 48.4371 31.6186 50.5482C31.2029 50.9527 30.7774 51.3468 30.3423 51.7303C27.7429 54.015 25.1382 55.6361 22.8426 56.4513ZM13.1792 38.0913C9.91243 36.9684 7.21459 35.5092 5.36544 33.9169C3.70367 32.4861 2.86493 31.0653 2.86493 29.9126C2.86493 27.4595 6.50173 24.3305 12.5676 22.204C13.3038 21.9461 14.0742 21.7026 14.8737 21.4742C15.7122 24.2163 16.8118 27.0834 18.1389 29.9826C16.7945 32.9247 15.6792 35.8376 14.8326 38.6121C14.2773 38.4522 13.726 38.2785 13.1792 38.0913ZM16.4185 15.9176C15.1595 9.44738 15.9956 4.56659 18.0999 3.34159C20.3411 2.03686 25.2971 3.89712 30.5208 8.56133C30.8614 8.86617 31.1966 9.17718 31.526 9.49422C29.5795 11.5961 27.6563 13.989 25.8189 16.5963C22.6681 16.89 19.652 17.3616 16.8791 17.9934C16.7082 17.3056 16.5546 16.6135 16.4185 15.9179V15.9176ZM45.3169 23.0934C44.6619 21.9558 43.9827 20.8325 43.2796 19.7242C45.4171 19.9961 47.4652 20.3569 49.3884 20.7979C48.8111 22.659 48.0914 24.6045 47.2443 26.5992C46.6251 25.4178 45.9825 24.249 45.3169 23.0934ZM33.5322 11.5511C34.8522 12.9892 36.1743 14.5948 37.4746 16.3369C34.8367 16.2116 32.1944 16.2111 29.5565 16.3353C30.8581 14.6092 32.1915 13.0058 33.5322 11.5511ZM21.6718 23.1132C21.0145 24.2594 20.3839 25.421 19.7805 26.5969C18.9473 24.6092 18.2341 22.6548 17.6519 20.7674C19.5633 20.3374 21.6017 19.9858 23.7256 19.719C23.0147 20.834 22.3299 21.9656 21.6718 23.1129V23.1132ZM23.7866 40.3111C21.5922 40.0648 19.5233 39.7313 17.6123 39.3129C18.2038 37.3919 18.9326 35.3958 19.7839 33.3655C20.3897 34.5423 21.0229 35.7045 21.683 36.8513C22.3619 38.0303 23.0648 39.185 23.7866 40.3111ZM33.6112 48.4769C32.2546 47.0053 30.9016 45.3771 29.5803 43.6261C30.8631 43.6766 32.1708 43.7024 33.5 43.7024C34.8655 43.7024 36.2153 43.6716 37.544 43.6121C36.2394 45.3947 34.9223 47.0253 33.6112 48.4769ZM47.2713 33.2619C48.1668 35.3145 48.9215 37.3 49.5208 39.1882C47.5785 39.634 45.4813 39.9929 43.2715 40.2595C43.9796 39.1307 44.6653 37.9878 45.3282 36.8316C46.0021 35.6563 46.65 34.4661 47.2713 33.2619ZM42.8491 35.3937C41.8343 37.1664 40.7624 38.9055 39.6352 40.6082C37.5933 40.7536 35.547 40.8258 33.5 40.8248C31.415 40.8248 29.3871 40.7595 27.4344 40.6321C26.2777 38.9334 25.1854 37.1913 24.1597 35.4095H24.16C23.1392 33.6371 22.1856 31.8265 21.3015 29.9813C22.1834 28.1358 23.134 26.3242 24.1514 24.5505L24.1511 24.5508C25.1681 22.7766 26.2517 21.042 27.3996 19.3505C29.3919 19.199 31.4349 19.12 33.4997 19.12H33.5C35.5742 19.12 37.6199 19.1998 39.6116 19.3524C40.748 21.0413 41.8246 22.77 42.8397 24.5353C43.8604 26.3051 44.8236 28.1078 45.7278 29.9405C44.8329 31.792 43.8727 33.6109 42.8491 35.3937ZM48.753 3.2558C50.9963 4.55686 51.8688 9.80343 50.4593 16.6837C50.3692 17.1226 50.2682 17.5697 50.1583 18.0232C47.3786 17.3779 44.3604 16.8982 41.2004 16.6C39.3596 13.964 37.4521 11.5674 35.5373 9.49265C36.0391 9.0062 36.5529 8.53237 37.0782 8.07159C42.0242 3.74344 46.6469 2.03449 48.753 3.2558ZM33.5 23.8969C36.8039 23.8969 39.4824 26.5903 39.4824 29.9126C39.4824 33.235 36.8039 35.9284 33.5 35.9284C30.196 35.9284 27.5176 33.235 27.5176 29.9126C27.5176 26.5903 30.196 23.8969 33.5 23.8969Z" fill="#00D8FF"/>
</g>
<defs>
<clipPath id="clip0_9_38">
<rect width="67" height="60" fill="white"/>
</clipPath>
</defs>
</svg>
