<svg width="76" height="76" viewBox="0 0 76 76" fill="none" xmlns="http://www.w3.org/2000/svg">
<path d="M21.375 32.5375C23.5917 23.6708 29.1333 19.2375 38 19.2375C51.3 19.2375 52.9625 29.2125 59.6125 30.875C64.0458 31.9833 67.925 30.3208 71.25 25.8875C69.0333 34.7542 63.4917 39.1875 54.625 39.1875C41.325 39.1875 39.6625 29.2125 33.0125 27.55C28.5792 26.4417 24.7 28.1042 21.375 32.5375ZM4.75 52.4875C6.96667 43.6208 12.5083 39.1875 21.375 39.1875C34.675 39.1875 36.3375 49.1625 42.9875 50.825C47.4208 51.9333 51.3 50.2708 54.625 45.8375C52.4083 54.7042 46.8667 59.1375 38 59.1375C24.7 59.1375 23.0375 49.1625 16.3875 47.5C11.9542 46.3917 8.075 48.0542 4.75 52.4875Z" fill="#44A8B3"/>
</svg>
