<svg width="65" height="66" viewBox="0 0 65 66" fill="none" xmlns="http://www.w3.org/2000/svg">
<path d="M58.9266 10.3744L47.2144 4.64888C46.5529 4.32506 45.8087 4.2182 45.0848 4.34311C44.3609 4.46802 43.6932 4.81851 43.1742 5.346L4.83437 40.8375C4.3692 41.2661 4.09075 41.8648 4.06027 42.5018C4.0298 43.1389 4.2498 43.7621 4.67187 44.2344C4.72265 44.2901 4.77344 44.3438 4.82828 44.3933L7.95844 47.2808C8.36745 47.6587 8.89394 47.8793 9.44646 47.9042C9.99897 47.9291 10.5426 47.7566 10.983 47.4169L57.1634 11.8594C57.5122 11.5906 57.928 11.4261 58.3639 11.3842C58.7999 11.3424 59.2387 11.4249 59.6309 11.6225C60.0231 11.8202 60.3532 12.1251 60.5841 12.5029C60.8149 12.8807 60.9373 13.3164 60.9375 13.761V13.6228C60.9375 12.944 60.7487 12.2791 60.393 11.7044C60.0372 11.1297 59.5289 10.6687 58.9266 10.3744Z" fill="#0065A9"/>
<path d="M58.9266 55.6256L47.2144 61.3532C46.5528 61.6761 45.8087 61.7824 45.085 61.6576C44.3613 61.5327 43.6936 61.1828 43.1742 60.6561L4.83437 25.1625C4.3692 24.7339 4.09075 24.1352 4.06027 23.4982C4.0298 22.8612 4.2498 22.2379 4.67187 21.7656C4.72265 21.7099 4.77344 21.6562 4.82828 21.6067L7.95844 18.7192C8.36787 18.3397 8.89556 18.1181 9.44944 18.0932C10.0033 18.0684 10.5482 18.2417 10.9891 18.5831L57.1634 54.1406C57.5122 54.4094 57.928 54.5739 58.3639 54.6158C58.7999 54.6576 59.2387 54.5751 59.6309 54.3775C60.0231 54.1798 60.3532 53.8749 60.5841 53.4971C60.8149 53.1193 60.9373 52.6836 60.9375 52.239V52.3875C60.9353 53.0645 60.7456 53.7271 60.39 54.2998C60.0343 54.8724 59.5272 55.3318 58.9266 55.6256Z" fill="#007ACC"/>
<path d="M47.2144 61.3532C46.5528 61.6761 45.8087 61.7825 45.085 61.6576C44.3613 61.5327 43.6936 61.1828 43.1742 60.6561C43.4659 60.9484 43.8361 61.1468 44.2384 61.2264C44.6406 61.306 45.0571 61.2634 45.4356 61.1037C45.814 60.944 46.1377 60.6745 46.3659 60.3289C46.5942 59.9832 46.7169 59.5769 46.7187 59.1608V6.83926C46.7191 6.42117 46.5972 6.01238 46.3686 5.66468C46.1399 5.31698 45.8148 5.04601 45.4343 4.8861C45.0539 4.72619 44.6352 4.68454 44.2314 4.76641C43.8276 4.84828 43.4569 5.05 43.1661 5.34601C43.6851 4.81872 44.3527 4.4682 45.0765 4.34295C45.8003 4.21769 46.5445 4.32388 47.2062 4.64683L58.9164 10.3641C59.5207 10.6569 60.031 11.1173 60.3887 11.6921C60.7463 12.2669 60.9365 12.9326 60.9375 13.6125V52.3875C60.9377 53.0668 60.7488 53.7324 60.3926 54.3075C60.0365 54.8826 59.5276 55.3438 58.9245 55.638L47.2144 61.3532Z" fill="#1F9CF0"/>
</svg>
